<svg xmlns="http://www.w3.org/2000/svg" viewBox="14 14 132 132">
  <defs>
    <linearGradient id="fv-badge" x1="0" y1="0" x2="1" y2="1">
      <stop offset="0" stop-color="#00DC9C"/>
      <stop offset="1" stop-color="#00916B"/>
    </linearGradient>
    <linearGradient id="fv-page" x1="0" y1="0" x2="0" y2="1">
      <stop offset="0" stop-color="#FFFFFF"/>
      <stop offset="1" stop-color="#D2EFE3"/>
    </linearGradient>
  </defs>

  <!-- Badge carré arrondi -->
  <rect x="20" y="20" width="120" height="120" rx="30" fill="url(#fv-badge)"/>
  <rect x="21" y="21" width="118" height="118" rx="29" fill="none" stroke="#FFFFFF" stroke-opacity="0.22" stroke-width="1.5"/>
  <path d="M24 78 L24 50 Q24 24 50 24 L110 24 Q136 24 136 50 L136 78 Q80 64 24 78 Z" fill="#FFFFFF" opacity="0.07"/>

  <!-- Ombre portée du livre -->
  <ellipse cx="80" cy="118" rx="31" ry="4.5" fill="#022C1F" opacity="0.22"/>

  <!-- Livre ouvert -->
  <path d="M80 79 C72 71 60 68 47 71 L47 107 C60 104 72 107 80 115 Z" fill="url(#fv-page)"/>
  <path d="M80 79 C88 71 100 68 113 71 L113 107 C100 104 88 107 80 115 Z" fill="url(#fv-page)"/>
  <path d="M80 79 C88 71 100 68 113 71 L113 107 C100 104 88 107 80 115 Z" fill="#0A1628" opacity="0.05"/>
  <path d="M53 79 C61 77.5 69 79 75 83" stroke="#0A1628" stroke-opacity="0.16" stroke-width="2" fill="none" stroke-linecap="round"/>
  <path d="M53 87 C61 85.5 69 87 75 91" stroke="#0A1628" stroke-opacity="0.12" stroke-width="2" fill="none" stroke-linecap="round"/>
  <path d="M107 79 C99 77.5 91 79 85 83" stroke="#0A1628" stroke-opacity="0.16" stroke-width="2" fill="none" stroke-linecap="round"/>
  <path d="M107 87 C99 85.5 91 87 85 91" stroke="#0A1628" stroke-opacity="0.12" stroke-width="2" fill="none" stroke-linecap="round"/>
  <path d="M80 79 L80 115" stroke="#04321F" stroke-opacity="0.30" stroke-width="2.5" stroke-linecap="round"/>

  <!-- Toque de diplômé -->
  <path d="M67 56 L93 56 L93 68 C93 72.5 67 72.5 67 68 Z" fill="#0A1C36"/>
  <path d="M80 35 L118 50 L80 65 L42 50 Z" fill="#0F2440"/>
  <path d="M80 38.5 L112.5 50 L80 61.5 L47.5 50 Z" fill="#FFFFFF" opacity="0.06"/>
  <circle cx="80" cy="50" r="3" fill="#FFB547"/>
  <path d="M118 50 C119.5 56 119.5 61 118.5 66" stroke="#FFB547" stroke-width="3" fill="none" stroke-linecap="round"/>
  <circle cx="118.5" cy="69.5" r="4.5" fill="#FFB547"/>
  <path d="M116.5 72.5 L116.5 76 M118.5 73.5 L118.5 77 M120.5 72.5 L120.5 76" stroke="#E89A2B" stroke-width="1.6" stroke-linecap="round"/>
</svg>
